<svg width="91" height="26" viewBox="0 0 91 26" fill="none" xmlns="http://www.w3.org/2000/svg">
<g clip-path="url(#clip0_5_82)">
<path d="M33.962 2.60254L37.291 24.2735L40.2858 24.2638L36.9698 2.60898L33.962 2.60254Z" fill="white"/>
<path d="M33.8224 2.60254H28.7251V24.2027H33.8224V2.60254Z" fill="white"/>
<path d="M18.738 2.60254H0V24.2027H16.869L18.738 2.60254Z" fill="white"/>
<path d="M21.3856 24.2027H27.0768L27.0995 2.60254H23.2513L21.3856 24.2027Z" fill="white"/>
<path d="M51.1879 12.6006H49.4228V8.5067C48.7136 8.97198 47.8782 9.21135 47.0282 9.19276C45.5065 9.19276 43.975 8.38105 43.975 6.00397V2.63477H45.7369V5.51113C45.7369 7.10552 46.5124 7.55967 47.502 7.55967C48.1932 7.54306 48.863 7.31838 49.4228 6.9155V2.63477H51.1879V12.6006Z" fill="white"/>
<path d="M53.1023 12.6006V2.63477H54.8674V9.72423L60.13 2.63477H61.6781V12.6006H59.9161V5.52401L54.6532 12.6006H53.1023Z" fill="white"/>
<path d="M63.216 2.63477H71.4896V4.27104H68.2352V12.6006H66.4704V4.27104H63.216V2.63477Z" fill="white"/>
<path d="M74.2219 2.60577H75.7729L80.0169 12.5909H78.1383L77.0901 10.0431H72.804L71.7558 12.5909H69.9779L74.2219 2.60577ZM73.4785 8.40359H76.4184L74.955 4.86048L73.4785 8.40359Z" fill="white"/>
<path d="M81.0907 12.6006V2.63477H82.8527V9.72423L88.1153 2.63477H89.6663V12.6006H87.9015V5.52401L82.6382 12.6006H81.0907Z" fill="white"/>
<path d="M43.9003 14.2562H49.5655V15.8925H45.6622V24.2188H43.9003V14.2562Z" fill="white"/>
<path d="M88.1318 0H82.9892V1.64594H86.9374L88.1318 0Z" fill="white"/>
<path d="M55.2729 14.0984C58.2548 14.0984 60.5065 16.1341 60.5065 19.252C60.5065 22.2411 58.2548 24.4056 55.2729 24.4056C52.2911 24.4056 50.0523 22.3732 50.0523 19.252C50.0523 16.3532 52.1905 14.0984 55.2729 14.0984ZM55.2729 22.7372C57.3789 22.7372 58.641 21.2007 58.641 19.2359C58.641 17.1713 57.1645 15.7347 55.2729 15.7347C53.3813 15.7347 51.9179 17.1713 51.9179 19.2359C51.9179 21.233 53.3943 22.7372 55.2729 22.7372Z" fill="white"/>
<path d="M62.1223 24.2188V14.2562C62.6808 14.2562 64.2705 14.224 64.9746 14.224C67.9269 14.224 68.8682 15.7926 68.8682 17.445C68.8682 19.1393 67.5931 20.666 65.1952 20.666C64.8932 20.666 64.3222 20.666 63.8974 20.6242V24.2252L62.1223 24.2188ZM63.8843 15.8925V18.9524C64.3029 18.9943 64.7311 19.0233 65.1332 19.0233C66.178 19.0233 66.9959 18.524 66.9959 17.4128C66.9959 16.3756 66.347 15.8635 65.1463 15.8635C64.7897 15.8635 64.358 15.8635 63.8843 15.8925Z" fill="white"/>
<path d="M75.2928 14.0984C78.2742 14.0984 80.5265 16.1341 80.5265 19.252C80.5265 22.2411 78.2742 24.4056 75.2928 24.4056C72.3109 24.4056 70.0717 22.3732 70.0717 19.252C70.0717 16.3532 72.2102 14.0984 75.2928 14.0984ZM75.2928 22.7372C77.3983 22.7372 78.6604 21.2007 78.6604 19.2359C78.6604 17.1713 77.1839 15.7347 75.2928 15.7347C73.4012 15.7347 71.9344 17.1713 71.9344 19.2359C71.9344 21.233 73.4137 22.7372 75.2928 22.7372Z" fill="white"/>
<path d="M80.6789 22.5825H82.0445C83.1968 17.6221 83.8912 14.253 83.8912 14.253H89.6276V22.5825H91V26H89.3518V24.2188H82.33V26H80.6789V22.5825ZM83.803 22.5825H87.8787V15.8924H85.2243C85.2243 15.8924 84.5981 19.1135 83.803 22.5825Z" fill="white"/>
</g>
<defs>
<clipPath id="clip0_5_82">
<rect width="91" height="26" fill="white"/>
</clipPath>
</defs>
</svg>
